<svg width="1654" height="1654" viewBox="0 0 1654 1654" fill="none" xmlns="http://www.w3.org/2000/svg">
<path fill-rule="evenodd" clip-rule="evenodd" d="M679.818 474.357C683.286 472.49 687.483 472.549 690.905 474.535L878.056 583.172C878.215 583.255 878.374 583.34 878.53 583.43C882.049 585.464 884.217 589.224 884.217 593.293V783.68C977.395 804.422 1078.11 789.217 1151.17 746.971L1151.51 746.787C1154.96 744.938 1159.14 745.001 1162.55 746.974L1347.32 853.914C1350.83 855.95 1353 859.709 1353 863.777C1353 864.172 1352.98 864.565 1352.94 864.953V1079.8C1352.94 1083.87 1350.77 1087.63 1347.25 1089.67C1241.77 1150.65 1104.26 1180.91 967.354 1181C830.45 1181.09 692.926 1151.01 587.44 1090.02C583.921 1087.99 581.754 1084.23 581.754 1080.16V991.132L507.702 1033.95C506.969 1034.71 506.126 1035.38 505.184 1035.93C503.289 1037.02 501.158 1037.53 499.046 1037.44C496.933 1037.53 494.802 1037.02 492.908 1035.93C491.966 1035.38 491.121 1034.71 490.389 1033.95L306.686 927.734C303.168 925.699 301 921.939 301 917.871V701.486C301 700.807 301.061 700.137 301.178 699.483C301.323 698.669 301.554 697.878 301.867 697.123C301.942 696.943 302.023 696.765 302.106 696.588C302.392 695.989 302.727 695.415 303.112 694.874C303.146 694.827 303.181 694.78 303.215 694.734C303.328 694.581 303.443 694.429 303.563 694.281C303.58 694.261 303.597 694.242 303.613 694.222C303.75 694.056 303.892 693.894 304.038 693.736L304.056 693.717C304.078 693.694 304.1 693.671 304.122 693.647C304.608 693.134 305.144 692.664 305.726 692.244C305.762 692.218 305.8 692.193 305.837 692.167C305.9 692.122 305.963 692.077 306.027 692.034C306.062 692.011 306.098 691.988 306.134 691.965C306.304 691.852 306.478 691.743 306.656 691.64L679.485 474.543L679.818 474.357ZM510.87 1005.81L515.23 1003.29V978.326L510.87 977.966V1005.81ZM323.745 746.468L466.283 993.708L486.915 1005.64L323.745 722.609V746.468ZM487.221 1002.14V979.956L345.295 733.78L326.063 722.606L487.221 1002.14ZM517.692 976.903V1001.87L558.319 978.38V953.414L538.005 951.736L517.692 976.903ZM323.745 772.679L443.615 980.602L462.801 991.695L323.745 750.494V772.679ZM323.745 800.564L419.502 966.66L440.133 978.589L323.745 776.706V800.564ZM560.781 951.99V976.956L581.754 964.83V926.878L581.094 926.824L560.781 951.99ZM487.221 975.93V952.071L369.468 747.824L348.785 735.807L487.221 975.93ZM510.87 928.412V974.687L516.462 975.149L536.775 949.982V923.163L516.461 921.485L510.87 928.412ZM323.745 826.775L396.834 953.554L416.019 964.646L323.745 804.591V826.775ZM323.745 854.661L372.72 939.612L393.352 951.54L323.745 830.802V854.661ZM539.237 921.739V948.558L559.55 950.236L579.862 925.069V898.25L559.549 896.572L539.237 921.739ZM487.221 948.045V925.861L392.189 761.025L372.958 749.851L487.221 948.045ZM616.392 863.616C706.631 911.182 819.395 937.256 934.531 941.421C945.323 941.811 956.137 942.01 966.955 942.015C967.09 942.015 967.225 942.015 967.361 942.015C1093.78 942.013 1219.64 915.666 1318.47 863.525L1156.78 769.946C1056.09 825.357 910.483 833.885 794.633 776.173L791.805 774.757C788.388 773.036 784.998 771.257 781.635 769.419L616.392 863.616ZM323.745 880.872L350.053 926.506L369.238 937.599L323.745 858.687V880.872ZM510.87 925.133L515.23 919.731V892.911L510.87 892.551V925.133ZM323.745 908.756L325.939 912.563L346.571 924.493L323.745 884.898V908.756ZM487.221 921.835V897.976L416.363 775.069L395.679 763.052L487.221 921.835ZM517.692 891.488V918.307L538.005 919.984L558.319 894.818V867.999L538.005 866.321L517.692 891.488ZM560.781 866.575V893.394L581.094 895.072L581.754 894.254V863.74C581.754 863.686 581.756 863.633 581.757 863.58L581.76 863.394C581.764 863.269 581.771 863.143 581.779 863.019C581.812 862.51 581.88 862.008 581.98 861.515C581.987 861.478 581.995 861.442 582.003 861.405C582.013 861.36 582.023 861.314 582.033 861.268C582.047 861.205 582.062 861.141 582.078 861.077C582.083 861.055 582.089 861.032 582.095 861.01C582.101 860.984 582.108 860.957 582.115 860.931C582.131 860.867 582.148 860.802 582.165 860.738C582.171 860.717 582.177 860.695 582.183 860.674C582.204 860.601 582.225 860.528 582.247 860.456C582.261 860.41 582.276 860.364 582.29 860.318C582.302 860.283 582.314 860.247 582.326 860.211C582.347 860.148 582.368 860.084 582.39 860.021C582.395 860.006 582.401 859.989 582.406 859.973C582.421 859.933 582.436 859.892 582.451 859.851C582.473 859.79 582.496 859.728 582.519 859.667C582.526 859.649 582.534 859.63 582.541 859.612C582.556 859.574 582.571 859.536 582.586 859.499C582.612 859.435 582.639 859.371 582.666 859.308C582.67 859.297 582.675 859.286 582.68 859.275C582.687 859.257 582.695 859.24 582.703 859.222C582.736 859.146 582.769 859.071 582.804 858.995C582.808 858.988 582.811 858.98 582.815 858.972C582.828 858.945 582.84 858.918 582.853 858.891C582.888 858.817 582.924 858.744 582.96 858.671C582.966 858.66 582.971 858.649 582.977 858.638C582.99 858.612 583.004 858.585 583.018 858.558C583.053 858.49 583.088 858.422 583.125 858.355C583.133 858.339 583.141 858.323 583.15 858.308C583.169 858.272 583.19 858.237 583.21 858.201C583.247 858.135 583.285 858.068 583.323 858.002C583.328 857.994 583.333 857.986 583.338 857.979C583.371 857.922 583.405 857.866 583.439 857.81C583.454 857.786 583.469 857.76 583.484 857.736C583.497 857.715 583.51 857.694 583.523 857.673C583.564 857.609 583.606 857.546 583.648 857.482C583.662 857.461 583.676 857.439 583.69 857.418C583.699 857.404 583.709 857.39 583.718 857.377C583.746 857.335 583.775 857.294 583.803 857.253C583.839 857.202 583.874 857.152 583.91 857.102C583.917 857.092 583.925 857.081 583.933 857.071C583.952 857.044 583.972 857.017 583.992 856.991C584.039 856.927 584.087 856.864 584.135 856.801C584.14 856.795 584.145 856.789 584.149 856.783C584.176 856.748 584.204 856.713 584.232 856.679C584.27 856.631 584.307 856.583 584.346 856.536C584.357 856.522 584.369 856.507 584.381 856.493C584.426 856.438 584.473 856.385 584.52 856.331C584.539 856.309 584.556 856.287 584.575 856.266C584.589 856.249 584.603 856.233 584.618 856.217C584.659 856.17 584.702 856.125 584.744 856.079C584.747 856.075 584.75 856.072 584.753 856.068C584.784 856.035 584.814 856.001 584.845 855.968C584.854 855.959 584.863 855.95 584.872 855.94C584.9 855.911 584.929 855.881 584.958 855.851C585.001 855.807 585.043 855.762 585.087 855.719C585.097 855.708 585.107 855.698 585.117 855.687C585.166 855.639 585.217 855.591 585.267 855.544C585.27 855.541 585.273 855.537 585.276 855.535C585.305 855.507 585.334 855.48 585.362 855.452C585.373 855.443 585.383 855.433 585.393 855.424C585.528 855.298 585.668 855.176 585.809 855.056C585.816 855.051 585.822 855.045 585.829 855.04C585.949 854.939 586.072 854.84 586.197 854.743C586.208 854.735 586.219 854.727 586.229 854.718C586.275 854.683 586.323 854.65 586.369 854.616C586.407 854.587 586.445 854.559 586.483 854.531C586.487 854.528 586.49 854.526 586.493 854.523C586.503 854.516 586.513 854.509 586.523 854.502C586.586 854.457 586.65 854.413 586.714 854.37C586.74 854.352 586.766 854.334 586.792 854.316C586.796 854.313 586.8 854.31 586.804 854.307C586.811 854.302 586.819 854.297 586.826 854.292C586.893 854.248 586.962 854.204 587.03 854.161L587.114 854.107C587.118 854.105 587.123 854.102 587.127 854.099C587.131 854.096 587.136 854.094 587.141 854.091C587.197 854.056 587.254 854.023 587.31 853.989C587.353 853.964 587.396 853.937 587.44 853.911C587.449 853.906 587.459 853.901 587.468 853.895C587.479 853.889 587.489 853.883 587.5 853.877L601.407 845.836V843.086L581.094 841.408L560.781 866.575ZM487.221 893.95V871.765L439.085 788.27L419.853 777.097L487.221 893.95ZM510.87 842.997V889.272L516.462 889.734L536.775 864.567V837.747L516.461 836.07L510.87 842.997ZM487.221 867.739V843.88L463.258 802.314L442.575 790.298L487.221 867.739ZM539.237 836.324V863.143L559.55 864.821L579.862 839.654V812.835L559.549 811.157L539.237 836.324ZM603.869 841.662V844.412L644.494 820.924V818.173L624.182 816.496L603.869 841.662ZM582.324 811.411V838.23L602.637 839.908L622.951 814.741V787.922L602.637 786.245L582.324 811.411ZM487.221 839.853V817.668L485.98 815.516L466.749 804.342L487.221 839.853ZM510.87 815.73V839.718L515.23 834.316V813.209L510.87 815.73ZM517.692 811.786V832.892L538.005 834.569L558.319 809.403V788.296L517.692 811.786ZM646.957 816.749V819.499L687.583 796.01V793.26L667.27 791.583L646.957 816.749ZM625.413 786.498V813.318L645.726 814.996L666.039 789.828V763.009L645.726 761.332L625.413 786.498ZM560.781 786.872V807.979L581.094 809.657L601.407 784.49V763.383L560.781 786.872ZM335.056 701.45L499.045 796.265L850.103 593.274L685.21 497.558L335.056 701.45ZM690.045 791.837V794.587L730.671 771.097V768.348L710.358 766.67L690.045 791.837ZM668.501 761.585V788.405L688.814 790.083L709.127 764.916V738.096L688.813 736.419L668.501 761.585ZM603.869 761.959V783.066L624.182 784.744L644.494 759.577V738.47L603.869 761.959ZM840.853 747.35V770.952C845.114 772.462 849.405 773.888 853.723 775.232L861.166 775.847L861.472 775.468V722.208L861.166 722.183L840.853 747.35ZM809.307 757.96C818.806 762.453 828.515 766.485 838.391 770.068V748.773L818.078 747.096L809.307 757.96ZM733.133 766.924V769.674L773.759 746.185V743.435L753.446 741.757L733.133 766.924ZM711.589 736.673V763.492L731.902 765.17L752.215 740.003V713.184L731.901 711.506L711.589 736.673ZM646.957 737.047V758.154L667.27 759.831L687.583 734.665V713.558L646.957 737.047ZM776.221 742.011V744.931C779.383 743.731 782.954 743.994 785.937 745.719C785.973 745.739 786.009 745.76 786.044 745.78C786.493 745.967 786.932 746.184 787.359 746.431C792.546 749.43 797.812 752.275 803.149 754.97C804.559 755.674 805.976 756.365 807.397 757.048L816.847 745.341V718.522L796.534 716.845L776.221 742.011ZM819.309 717.098V743.918L839.622 745.595L859.935 720.429V693.609L839.622 691.932L819.309 717.098ZM754.677 711.76V738.579L774.99 740.257L795.303 715.09V688.271L774.989 686.593L754.677 711.76ZM690.045 712.134V733.241L710.358 734.918L730.671 709.752V688.645L690.045 712.134ZM797.765 686.847V713.667L818.078 715.345L838.391 690.177V663.358L818.078 661.681L797.765 686.847ZM733.133 687.221V708.328L753.446 710.006L773.759 684.839V663.732L733.133 687.221ZM840.853 661.934V688.754L861.166 690.432L861.472 690.052V636.793L861.166 636.768L840.853 661.934ZM776.221 662.308V683.415L796.534 685.093L816.847 659.926V638.819L776.221 662.308ZM819.309 637.396V658.503L839.622 660.18L859.935 635.014V613.906L819.309 637.396Z" fill="#32323C"/>
</svg>
