<svg width="4106" height="1654" viewBox="0 0 4106 1654" fill="none" xmlns="http://www.w3.org/2000/svg">
<path fill-rule="evenodd" clip-rule="evenodd" d="M3377.96 554.945C3421.1 554.946 3456.39 562.39 3483.84 577.277C3511.29 592.164 3530.11 609.01 3540.31 627.815V565.524H3710.89V1076.79C3710.89 1167.68 3684.62 1242.51 3632.07 1301.28C3579.53 1360.83 3501.49 1390.6 3397.96 1390.6C3317.96 1390.6 3251.3 1369.84 3197.96 1328.31C3145.42 1287.56 3114.83 1238.98 3106.2 1182.57L3263.85 1137.91C3270.12 1166.9 3284.24 1190.4 3306.2 1208.43C3328.94 1226.45 3356.78 1235.46 3389.73 1235.46C3486.19 1235.46 3534.43 1185.7 3534.43 1086.19V1059.16C3505.41 1103.04 3453.25 1124.98 3377.96 1124.98C3300.32 1124.98 3235.61 1097.95 3183.85 1043.88C3132.08 989.815 3106.2 922.038 3106.2 840.549C3106.2 762.194 3131.69 695.2 3182.67 639.568C3234.43 583.153 3299.53 554.945 3377.96 554.945ZM3410.9 711.264C3376.39 711.264 3346.59 723.408 3321.49 747.698C3297.18 771.205 3285.02 802.155 3285.02 840.549C3285.02 879.726 3296.79 911.068 3320.31 934.575C3343.84 958.081 3374.04 969.835 3410.9 969.835C3447.76 969.835 3477.57 958.081 3500.31 934.575C3523.84 911.068 3535.6 879.726 3535.6 840.549C3535.6 802.155 3523.45 771.205 3499.13 747.698C3474.82 723.409 3445.41 711.264 3410.9 711.264Z" fill="#F8F8F8"/>
<path fill-rule="evenodd" clip-rule="evenodd" d="M585.607 1004.59L576.423 1016.98L567.239 993.979L585.607 1004.59ZM577.261 1010.52L580.936 1005.56L573.586 1001.31L577.261 1010.52Z" fill="#F8F8F8"/>
<path fill-rule="evenodd" clip-rule="evenodd" d="M614.693 1005.48L596.325 994.867L605.509 982.482L614.693 1005.48ZM600.995 993.899L608.345 998.147L604.67 988.942L600.995 993.899Z" fill="#F8F8F8"/>
<path fill-rule="evenodd" clip-rule="evenodd" d="M527.442 970.979L518.258 983.364L509.075 960.364L527.442 970.979ZM519.096 976.901L522.771 971.946L515.422 967.699L519.096 976.901Z" fill="#F8F8F8"/>
<path fill-rule="evenodd" clip-rule="evenodd" d="M556.528 971.866L538.16 961.251L547.344 948.866L556.528 971.866ZM542.83 960.282L550.179 964.529L546.505 955.327L542.83 960.282Z" fill="#F8F8F8"/>
<path fill-rule="evenodd" clip-rule="evenodd" d="M469.277 937.365L460.093 949.748L450.909 926.749L469.277 937.365ZM460.931 943.286L464.606 938.332L457.257 934.084L460.931 943.286Z" fill="#F8F8F8"/>
<path fill-rule="evenodd" clip-rule="evenodd" d="M585.607 937.365L576.423 949.748L567.239 926.749L585.607 937.365ZM577.261 943.286L580.936 938.331L573.586 934.084L577.261 943.286Z" fill="#F8F8F8"/>
<path fill-rule="evenodd" clip-rule="evenodd" d="M498.363 938.252L479.995 927.636L489.179 915.252L498.363 938.252ZM484.665 926.668L492.014 930.915L488.34 921.712L484.665 926.668Z" fill="#F8F8F8"/>
<path fill-rule="evenodd" clip-rule="evenodd" d="M614.693 938.252L596.325 927.636L605.509 915.252L614.693 938.252ZM600.995 926.668L608.345 930.915L604.67 921.712L600.995 926.668Z" fill="#F8F8F8"/>
<path fill-rule="evenodd" clip-rule="evenodd" d="M527.442 903.749L518.258 916.134L509.075 893.134L527.442 903.749ZM519.096 909.671L522.771 904.717L515.422 900.47L519.096 909.671Z" fill="#F8F8F8"/>
<path fill-rule="evenodd" clip-rule="evenodd" d="M440.197 904.637L421.83 894.022L431.014 881.638L440.197 904.637ZM426.5 893.054L433.849 897.301L430.175 888.099L426.5 893.054Z" fill="#F8F8F8"/>
<path fill-rule="evenodd" clip-rule="evenodd" d="M556.528 904.637L538.16 894.022L547.344 881.638L556.528 904.637ZM542.83 893.053L550.179 897.301L546.505 888.099L542.83 893.053Z" fill="#F8F8F8"/>
<path fill-rule="evenodd" clip-rule="evenodd" d="M469.277 870.135L460.093 882.518L450.909 859.519L469.277 870.135ZM460.931 876.057L464.606 871.102L457.257 866.855L460.931 876.057Z" fill="#F8F8F8"/>
<path fill-rule="evenodd" clip-rule="evenodd" d="M585.607 870.135L576.423 882.518L567.239 859.519L585.607 870.135ZM577.261 876.057L580.936 871.101L573.586 866.855L577.261 876.057Z" fill="#F8F8F8"/>
<path fill-rule="evenodd" clip-rule="evenodd" d="M498.363 871.022L479.995 860.406L489.179 848.022L498.363 871.022ZM484.665 859.438L492.014 863.685L488.34 854.483L484.665 859.438Z" fill="#F8F8F8"/>
<path fill-rule="evenodd" clip-rule="evenodd" d="M614.693 871.022L596.325 860.406L605.509 848.022L614.693 871.022ZM600.995 859.438L608.345 863.685L604.67 854.482L600.995 859.438Z" fill="#F8F8F8"/>
<path fill-rule="evenodd" clip-rule="evenodd" d="M527.442 836.519L518.258 848.904L509.075 825.905L527.442 836.519ZM519.096 842.442L522.771 837.487L515.422 833.24L519.096 842.442Z" fill="#F8F8F8"/>
<path fill-rule="evenodd" clip-rule="evenodd" d="M440.197 837.407L421.83 826.793L431.014 814.408L440.197 837.407ZM426.5 825.824L433.849 830.072L430.175 820.869L426.5 825.824Z" fill="#F8F8F8"/>
<path fill-rule="evenodd" clip-rule="evenodd" d="M556.528 837.407L538.16 826.792L547.344 814.408L556.528 837.407ZM542.83 825.824L550.179 830.071L546.505 820.869L542.83 825.824Z" fill="#F8F8F8"/>
<path fill-rule="evenodd" clip-rule="evenodd" d="M469.277 802.905L460.093 815.289L450.909 792.289L469.277 802.905ZM460.931 808.828L464.606 803.872L457.257 799.625L460.931 808.828Z" fill="#F8F8F8"/>
<path fill-rule="evenodd" clip-rule="evenodd" d="M585.607 802.905L576.423 815.289L567.239 792.289L585.607 802.905ZM577.261 808.828L580.935 803.872L573.586 799.625L577.261 808.828Z" fill="#F8F8F8"/>
<path fill-rule="evenodd" clip-rule="evenodd" d="M498.363 803.792L479.995 793.176L489.179 780.792L498.363 803.792ZM484.665 792.208L492.014 796.455L488.34 787.254L484.665 792.208Z" fill="#F8F8F8"/>
<path fill-rule="evenodd" clip-rule="evenodd" d="M527.442 769.289L518.258 781.674L509.075 758.675L527.442 769.289ZM519.096 775.212L522.771 770.257L515.422 766.01L519.096 775.212Z" fill="#F8F8F8"/>
<path fill-rule="evenodd" clip-rule="evenodd" d="M440.197 770.177L421.83 759.563L431.014 747.178L440.197 770.177ZM426.5 758.595L433.849 762.842L430.175 753.639L426.5 758.595Z" fill="#F8F8F8"/>
<path fill-rule="evenodd" clip-rule="evenodd" d="M469.277 735.675L460.093 748.06L450.909 725.06L469.277 735.675ZM460.931 741.598L464.606 736.642L457.257 732.395L460.931 741.598Z" fill="#F8F8F8"/>
<path d="M664.556 1019.75C667.092 1018.29 669.147 1019.48 669.147 1022.41C669.147 1025.34 667.092 1028.9 664.556 1030.37C662.02 1031.83 659.964 1030.65 659.964 1027.72C659.964 1024.78 662.02 1021.22 664.556 1019.75Z" fill="#F8F8F8"/>
<path d="M722.72 986.139C725.256 984.674 727.313 985.862 727.313 988.793C727.312 991.724 725.256 995.289 722.72 996.755C720.185 998.22 718.129 997.031 718.129 994.1C718.129 991.169 720.185 987.605 722.72 986.139Z" fill="#F8F8F8"/>
<path d="M693.643 969.33C696.179 967.864 698.234 969.052 698.234 971.983C698.234 974.915 696.179 978.479 693.643 979.945C691.107 981.41 689.051 980.222 689.051 977.291C689.051 974.36 691.107 970.795 693.643 969.33Z" fill="#F8F8F8"/>
<path d="M664.556 952.524C667.092 951.059 669.147 952.246 669.147 955.178C669.147 958.109 667.092 961.674 664.556 963.139C662.02 964.605 659.964 963.416 659.964 960.486C659.964 957.554 662.02 953.99 664.556 952.524Z" fill="#F8F8F8"/>
<path d="M722.72 918.909C725.256 917.444 727.313 918.632 727.313 921.563C727.312 924.494 725.256 928.059 722.72 929.525C720.185 930.99 718.129 929.801 718.129 926.87C718.129 923.939 720.185 920.375 722.72 918.909Z" fill="#F8F8F8"/>
<path d="M693.643 902.1C696.179 900.634 698.234 901.822 698.234 904.753C698.234 907.685 696.179 911.25 693.643 912.715C691.107 914.181 689.051 912.992 689.051 910.062C689.051 907.13 691.107 903.566 693.643 902.1Z" fill="#F8F8F8"/>
<path d="M664.556 885.294C667.092 883.829 669.147 885.016 669.147 887.948C669.147 890.879 667.092 894.444 664.556 895.909C662.02 897.375 659.964 896.186 659.964 893.256C659.964 890.325 662.02 886.76 664.556 885.294Z" fill="#F8F8F8"/>
<path d="M722.72 851.68C725.256 850.214 727.313 851.402 727.313 854.333C727.312 857.264 725.256 860.829 722.72 862.295C720.185 863.76 718.129 862.571 718.129 859.64C718.129 856.709 720.185 853.145 722.72 851.68Z" fill="#F8F8F8"/>
<path d="M693.643 834.87C696.179 833.404 698.234 834.592 698.234 837.524C698.234 840.455 696.179 844.02 693.643 845.485C691.107 846.951 689.051 845.762 689.051 842.832C689.051 839.9 691.107 836.336 693.643 834.87Z" fill="#F8F8F8"/>
<path d="M664.556 818.064C667.092 816.599 669.147 817.787 669.147 820.718C669.147 823.649 667.092 827.214 664.556 828.679C662.02 830.145 659.964 828.957 659.964 826.026C659.964 823.095 662.02 819.53 664.556 818.064Z" fill="#F8F8F8"/>
<path d="M780.886 818.064C783.422 816.599 785.478 817.787 785.478 820.718C785.478 823.649 783.422 827.214 780.886 828.679C778.35 830.145 776.295 828.956 776.294 826.026C776.294 823.095 778.35 819.53 780.886 818.064Z" fill="#F8F8F8"/>
<path d="M751.808 801.255C754.344 799.79 756.4 800.978 756.4 803.909C756.399 806.84 754.344 810.405 751.808 811.871C749.272 813.336 747.216 812.147 747.216 809.216C747.216 806.285 749.272 802.721 751.808 801.255Z" fill="#F8F8F8"/>
<path d="M839.052 784.45C841.588 782.984 843.644 784.172 843.644 787.103C843.644 790.035 841.588 793.599 839.052 795.065C836.516 796.53 834.46 795.341 834.459 792.41C834.46 789.479 836.516 785.915 839.052 784.45Z" fill="#F8F8F8"/>
<path d="M722.72 784.45C725.256 782.984 727.313 784.172 727.313 787.103C727.313 790.035 725.256 793.599 722.72 795.065C720.185 796.53 718.129 795.341 718.129 792.41C718.129 789.479 720.185 785.915 722.72 784.45Z" fill="#F8F8F8"/>
<path d="M809.972 767.64C812.509 766.174 814.565 767.362 814.565 770.294C814.565 773.225 812.508 776.79 809.972 778.255C807.437 779.72 805.381 778.532 805.381 775.602C805.381 772.671 807.437 769.106 809.972 767.64Z" fill="#F8F8F8"/>
<path d="M780.886 750.835C783.422 749.37 785.478 750.558 785.478 753.489C785.478 756.42 783.422 759.984 780.886 761.45C778.35 762.915 776.294 761.727 776.294 758.796C776.294 755.865 778.35 752.301 780.886 750.835Z" fill="#F8F8F8"/>
<path d="M897.217 750.834C899.753 749.369 901.809 750.557 901.809 753.488C901.809 756.419 899.753 759.984 897.217 761.45C894.681 762.915 892.625 761.727 892.625 758.796C892.625 755.865 894.681 752.3 897.217 750.834Z" fill="#F8F8F8"/>
<path d="M868.138 734.026C870.674 732.56 872.73 733.748 872.73 736.679C872.73 739.61 870.674 743.175 868.138 744.641C865.602 746.106 863.547 744.917 863.546 741.986C863.547 739.055 865.602 735.491 868.138 734.026Z" fill="#F8F8F8"/>
<path d="M839.052 717.22C841.588 715.754 843.644 716.942 843.644 719.873C843.644 722.805 841.588 726.37 839.052 727.835C836.516 729.3 834.46 728.112 834.459 725.181C834.46 722.25 836.516 718.686 839.052 717.22Z" fill="#F8F8F8"/>
<path d="M955.382 717.22C957.918 715.754 959.974 716.942 959.974 719.873C959.973 722.805 957.918 726.37 955.382 727.835C952.846 729.301 950.79 728.112 950.79 725.181C950.79 722.249 952.846 718.685 955.382 717.22Z" fill="#F8F8F8"/>
<path d="M1071.71 717.22C1074.25 715.754 1076.3 716.942 1076.3 719.873C1076.3 722.805 1074.25 726.37 1071.71 727.835C1069.18 729.3 1067.12 728.111 1067.12 725.181C1067.12 722.25 1069.18 718.686 1071.71 717.22Z" fill="#F8F8F8"/>
<path d="M926.303 700.411C928.839 698.945 930.895 700.133 930.895 703.065C930.895 705.996 928.839 709.561 926.303 711.026C923.767 712.492 921.711 711.303 921.711 708.372C921.711 705.441 923.767 701.877 926.303 700.411Z" fill="#F8F8F8"/>
<path d="M1042.63 700.411C1045.17 698.945 1047.22 700.133 1047.22 703.065C1047.22 705.996 1045.17 709.56 1042.63 711.026C1040.1 712.491 1038.04 711.303 1038.04 708.372C1038.04 705.441 1040.1 701.877 1042.63 700.411Z" fill="#F8F8F8"/>
<path d="M897.217 683.605C899.753 682.14 901.809 683.328 901.809 686.259C901.809 689.19 899.753 692.755 897.217 694.221C894.681 695.686 892.625 694.497 892.625 691.566C892.625 688.635 894.681 685.071 897.217 683.605Z" fill="#F8F8F8"/>
<path d="M1013.55 683.605C1016.08 682.14 1018.14 683.328 1018.14 686.259C1018.14 689.19 1016.08 692.755 1013.55 694.221C1011.01 695.686 1008.96 694.497 1008.96 691.566C1008.96 688.635 1011.01 685.071 1013.55 683.605Z" fill="#F8F8F8"/>
<path d="M984.468 666.796C987.004 665.33 989.061 666.518 989.061 669.449C989.06 672.381 987.004 675.945 984.468 677.411C981.932 678.876 979.876 677.687 979.876 674.757C979.876 671.825 981.932 668.261 984.468 666.796Z" fill="#F8F8F8"/>
<path d="M955.382 649.99C957.918 648.524 959.974 649.712 959.974 652.644C959.973 655.575 957.918 659.14 955.382 660.605C952.846 662.071 950.79 660.882 950.79 657.951C950.79 655.02 952.846 651.456 955.382 649.99Z" fill="#F8F8F8"/>
<path d="M1071.71 649.99C1074.25 648.524 1076.3 649.712 1076.3 652.644C1076.3 655.575 1074.25 659.14 1071.71 660.605C1069.18 662.07 1067.12 660.882 1067.12 657.951C1067.12 655.02 1069.18 651.456 1071.71 649.99Z" fill="#F8F8F8"/>
<path d="M1042.63 633.181C1045.17 631.716 1047.22 632.904 1047.22 635.835C1047.22 638.766 1045.17 642.331 1042.63 643.797C1040.1 645.262 1038.04 644.073 1038.04 641.142C1038.04 638.211 1040.1 634.647 1042.63 633.181Z" fill="#F8F8F8"/>
<path d="M1013.55 616.375C1016.08 614.91 1018.14 616.098 1018.14 619.029C1018.14 621.96 1016.08 625.525 1013.55 626.991C1011.01 628.456 1008.96 627.267 1008.96 624.336C1008.96 621.405 1011.01 617.841 1013.55 616.375Z" fill="#F8F8F8"/>
<path d="M1071.71 582.76C1074.25 581.294 1076.3 582.482 1076.3 585.414C1076.3 588.345 1074.25 591.91 1071.71 593.375C1069.18 594.84 1067.12 593.652 1067.12 590.722C1067.12 587.791 1069.18 584.226 1071.71 582.76Z" fill="#F8F8F8"/>
<path fill-rule="evenodd" clip-rule="evenodd" d="M862.382 395.944C864.538 394.785 867.148 394.822 869.274 396.056L1102.13 531.159C1102.27 531.231 1102.42 531.31 1102.57 531.394C1104.75 532.658 1106.1 534.994 1106.1 537.522V779.302C1224.77 806.735 1353.54 787.688 1446.86 733.755L1447.06 733.641C1449.21 732.493 1451.81 732.53 1453.93 733.755L1685.35 867.543C1685.6 867.69 1685.85 867.855 1686.08 868.03C1686.22 868.136 1686.36 868.246 1686.49 868.361C1686.81 868.649 1687.11 868.965 1687.37 869.303C1687.53 869.507 1687.68 869.719 1687.82 869.938C1687.92 870.095 1688.01 870.257 1688.09 870.422C1688.11 870.461 1688.13 870.499 1688.15 870.538C1688.39 871.017 1688.57 871.524 1688.69 872.049C1688.82 872.574 1688.88 873.119 1688.88 873.672V1142.15C1688.88 1144.68 1687.53 1147.01 1685.35 1148.28C1555.53 1223.3 1385.84 1260.73 1216.53 1260.84C1047.23 1260.95 877.538 1223.75 747.713 1148.72C745.526 1147.46 744.178 1145.12 744.178 1142.59V1019.69L640.48 1079.62C639.014 1080.47 638.572 1080.62 637.716 1081.11C636.455 1081.84 635.921 1082.41 634.274 1082.41C632.828 1082.41 631.88 1081.84 630.619 1081.11C629.783 1080.63 629.293 1080.33 628.066 1079.62L398.64 947.029C396.453 945.765 395.106 943.429 395.105 940.901V671.968C395.108 670.556 395.532 669.204 396.287 668.066C396.397 667.9 396.515 667.739 396.639 667.583C397.179 666.902 397.847 666.315 398.622 665.864L862.175 396.061L862.382 395.944ZM884.63 1132.81C868.796 1147.07 853.702 1161.97 839.108 1177.62C870.909 1190.64 904.298 1201.83 938.831 1211.18C939.345 1211.32 939.861 1211.46 940.376 1211.6C941.059 1211.78 941.742 1211.96 942.426 1212.14C942.785 1212.24 943.143 1212.34 943.502 1212.43L943.503 1212.43C1029.82 1235.31 1123.11 1246.74 1216.53 1246.68C1248 1246.66 1279.47 1245.33 1310.66 1242.71C1279.68 1222.49 1248.42 1202.5 1217.88 1182.98C1188.07 1202.07 1156.71 1222.07 1124.26 1242.98C1119.43 1242.59 1114.61 1242.16 1109.79 1241.71C1077.57 1217.95 1046.33 1192.21 1017.09 1165.48C992.989 1178.54 968.744 1193.47 943.503 1212.43C942.46 1212.15 941.417 1211.88 940.376 1211.6C938.767 1211.16 937.159 1210.73 935.555 1210.29C918.658 1184.13 901.337 1158.27 884.63 1132.81ZM1118.88 1242.25C1151.15 1221.43 1182.34 1201.53 1212.03 1182.53C1180.88 1182.35 1149.74 1180.89 1118.88 1178.17V1242.25ZM1411.49 1165.98C1380.98 1171.35 1349.93 1175.42 1318.6 1178.18V1241.73C1350.84 1218.17 1382.15 1192.59 1411.49 1165.98ZM1322.35 1241.66C1323.24 1241.58 1324.13 1241.49 1325.01 1241.41C1325.02 1241.4 1325.02 1241.4 1325.02 1241.4C1324.13 1241.49 1323.24 1241.57 1322.35 1241.66ZM1022.1 1165.26C1051.54 1192.01 1082.97 1217.72 1115.34 1241.41V1177.85C1083.88 1174.98 1052.72 1170.78 1022.1 1165.26ZM1417.51 1165.29C1388.33 1191.97 1357.16 1217.67 1325.02 1241.4C1381.7 1235.88 1437.32 1226.04 1490.3 1211.9L1490.31 1211.9C1490.52 1211.84 1490.73 1211.79 1490.94 1211.73C1490.73 1211.79 1490.52 1211.84 1490.3 1211.9C1468.65 1193.03 1444.83 1179.01 1417.51 1165.29ZM1315.07 1178.48C1284.8 1181.05 1254.28 1182.4 1223.76 1182.54C1253.83 1201.77 1284.58 1221.44 1315.07 1241.36V1178.48ZM1498.68 1209.62C1498.85 1209.57 1499.02 1209.53 1499.2 1209.48L1499.2 1209.48C1499.02 1209.53 1498.85 1209.57 1498.68 1209.62ZM1669.95 1087.03C1667.38 1104.4 1664.07 1123.74 1659.69 1146.35C1657.94 1147.29 1656.18 1148.22 1654.42 1149.14V1148.3L1654.05 1148.41C1649.53 1133.4 1641.88 1116.55 1631.75 1099.02C1623.25 1121.77 1613.9 1145.99 1604.02 1172.99C1601.02 1174.27 1598.01 1175.53 1594.99 1176.78C1580.5 1161.33 1565.51 1146.62 1549.79 1132.53C1533.2 1157.82 1516 1183.5 1499.2 1209.48C1562.59 1191.88 1622.03 1168.06 1674.74 1138.05V1122.05C1673.83 1111.76 1672.21 1099.85 1669.95 1087.03ZM942.133 1209.04C966.466 1190.82 989.896 1176.31 1013.13 1163.61C989.058 1159.05 965.348 1153.66 942.133 1147.45V1209.04ZM1545.52 1132.6C1529.09 1138.01 1512.35 1142.99 1495.35 1147.52V1208.93C1512.03 1183.09 1529.07 1157.64 1545.52 1132.6ZM1491.81 1148.46C1469.19 1154.4 1446.11 1159.56 1422.7 1163.95C1448.35 1177.02 1471.07 1190.62 1491.81 1208.52V1148.46ZM887.706 1131.05C904.375 1156.45 921.672 1182.27 938.598 1208.48V1146.5C921.337 1141.81 904.355 1136.66 887.706 1131.05ZM1315.07 1119.88C1287.02 1138.53 1256.5 1158.23 1224.1 1179C1254.52 1178.85 1284.92 1177.5 1315.07 1174.93V1119.88ZM1118.88 1174.62C1149.61 1177.34 1180.62 1178.8 1211.65 1178.99C1179.43 1158.38 1148.11 1138.3 1118.88 1119.02V1174.62ZM1122.98 1117.49C1152.88 1137.18 1184.93 1157.7 1217.88 1178.78C1251.44 1157.28 1283 1136.94 1311.95 1117.7C1281.29 1120.22 1250.4 1121.49 1219.5 1121.51C1187.24 1121.53 1154.97 1120.19 1122.98 1117.49ZM836.086 1175.67C851.012 1159.64 866.454 1144.4 882.666 1129.82C882.531 1129.61 882.396 1129.41 882.261 1129.2C866.549 1123.79 851.142 1117.97 836.086 1111.74V1175.67ZM1597.86 1113.39C1583.07 1119.4 1567.95 1125.02 1552.54 1130.25C1568.3 1144.39 1583.33 1159.16 1597.86 1174.67V1113.39ZM1318.6 1174.62C1349.98 1171.85 1381.08 1167.76 1411.63 1162.36C1392.24 1152.81 1371.1 1143.25 1347.78 1132.13C1338.41 1127.67 1328.69 1122.96 1318.6 1117.9V1174.62ZM1113.45 1118.53C1082.59 1133.2 1053.18 1146.33 1023.67 1161.95C1053.77 1167.35 1084.41 1171.47 1115.34 1174.3V1117.63C1114.71 1117.93 1114.08 1118.23 1113.45 1118.53ZM830.267 1173.93C830.452 1174.01 830.637 1174.09 830.821 1174.17C830.636 1174.09 830.451 1174.01 830.266 1173.93L830.267 1173.93ZM763.468 1085.82C760.19 1105.6 758.4 1123.88 758.321 1138.49L761.295 1140.17C783.209 1152.49 806.265 1163.74 830.266 1173.93C819.662 1144.93 809.947 1120.11 801.291 1097.09C789.589 1117.11 782.648 1135.42 780.666 1150.63C778.602 1149.56 776.547 1148.48 774.501 1147.39C769.703 1124.04 766.164 1103.99 763.468 1085.82ZM804.378 1097.75C812.815 1120.15 822.256 1144.33 832.551 1172.46V1110.27C823.013 1106.26 813.617 1102.09 804.378 1097.75ZM1628.48 1100.17C1619.59 1104.25 1610.56 1108.17 1601.39 1111.95V1172.45C1611.04 1146.08 1620.16 1122.39 1628.48 1100.17ZM1489.04 1088.14C1436 1101.9 1380.48 1111.4 1324.02 1116.65C1332.72 1120.98 1341.14 1125.05 1349.3 1128.94C1374 1140.71 1396.39 1150.8 1416.91 1161.03C1442.79 1137.27 1467.07 1112.73 1489.04 1088.14ZM944.319 1086.99C966.474 1111.88 991.008 1136.71 1017.18 1160.77C1017.48 1160.82 1017.77 1160.88 1018.07 1160.93C1048.4 1144.65 1078.48 1131.2 1109.89 1116.31C1053.18 1110.84 997.467 1101.07 944.319 1086.99ZM1491.81 1090.35C1470.75 1113.93 1447.58 1137.45 1422.92 1160.3C1446.27 1155.91 1469.27 1150.74 1491.81 1144.8V1090.35ZM942.133 1143.79C964.535 1149.8 987.405 1155.05 1010.63 1159.52C986.105 1136.76 963.068 1113.34 942.133 1089.86V1143.79ZM1495.35 1143.86C1512.39 1139.3 1529.17 1134.29 1545.63 1128.84C1529.71 1114.79 1513.02 1101.36 1495.35 1088.42V1143.86ZM938.598 1088.83C921.524 1101.41 905.377 1114.45 889.945 1128.07C905.872 1133.41 922.106 1138.33 938.598 1142.83V1088.83ZM764.974 1077.71C767.591 1096.46 771.095 1117.13 775.993 1141.43V1083.64C772.291 1081.69 768.617 1079.71 764.974 1077.71ZM1668.23 1080.42C1664.83 1082.25 1661.4 1084.05 1657.95 1085.83V1141.35C1662.42 1118 1665.71 1098.2 1668.23 1080.42ZM1654.42 1087.64C1647.96 1090.93 1641.42 1094.12 1634.8 1097.24C1643.08 1111.55 1649.73 1125.45 1654.42 1138.33V1087.64ZM779.527 1138.28C782.959 1125.16 789.319 1110.5 798.451 1094.94C792.065 1091.87 785.756 1088.72 779.527 1085.48V1138.28ZM1595.24 1053.41C1564.08 1065.95 1531.46 1076.75 1497.8 1085.83C1515.84 1099.05 1532.85 1112.79 1549.08 1127.16C1565.46 1102.15 1581.17 1077.55 1595.24 1053.41ZM837.786 1051.4C852.007 1075.89 867.933 1100.85 884.555 1126.25C885.063 1126.42 885.572 1126.6 886.081 1126.77C902.38 1112.3 919.464 1098.48 937.584 1085.18C903.052 1075.76 869.64 1064.5 837.786 1051.4ZM1597.86 1055.95C1584.45 1078.89 1569.57 1102.26 1554.07 1125.99C1568.95 1120.89 1583.56 1115.42 1597.86 1109.58V1055.95ZM836.086 1107.91C850.125 1113.75 864.473 1119.23 879.095 1124.36C863.873 1101.04 849.268 1078.06 836.086 1055.51V1107.91ZM1218.92 1061.5C1184.61 1083.17 1153.1 1099.46 1123.04 1113.94C1155 1116.65 1187.25 1117.99 1219.5 1117.97C1250.18 1117.95 1280.87 1116.7 1311.3 1114.21C1283.46 1100.02 1252.84 1083.12 1218.92 1061.5ZM1416.93 1042.93C1384.67 1048.79 1351.79 1053.18 1318.6 1056.1V1113.27C1338.22 1100.17 1356.58 1087.59 1373.47 1075.52C1389.31 1064.21 1403.85 1053.34 1416.93 1042.93ZM1423.84 1041.92C1409.51 1053.53 1393.32 1065.69 1375.52 1078.4C1360 1089.49 1343.25 1101.01 1325.42 1112.96C1381.66 1107.65 1436.93 1098.09 1489.69 1084.32C1469.2 1069.61 1447.37 1055.54 1423.84 1041.92ZM1010.01 1042.11C987.054 1055.48 965.716 1069.28 945.661 1083.69C998.192 1097.58 1053.25 1107.25 1109.32 1112.7C1092 1101.19 1075.48 1089.98 1060.03 1079.13C1041.73 1066.27 1024.91 1053.9 1010.01 1042.11ZM1015.57 1041.99C1029.54 1052.91 1045.15 1064.35 1062.06 1076.23C1078.69 1087.92 1096.56 1100.01 1115.34 1112.45V1055.78C1081.64 1052.7 1048.27 1048.1 1015.57 1041.99ZM1315.07 1056.41C1284.84 1058.97 1254.37 1060.32 1223.89 1060.46C1257.36 1081.63 1287.57 1098.21 1315.07 1112.15V1056.41ZM1118.88 1112.02C1148.73 1097.69 1179.96 1081.7 1213.92 1060.46C1182.14 1060.33 1150.37 1058.87 1118.88 1056.1V1112.02ZM1601.39 1108.12C1611 1104.14 1620.47 1099.99 1629.78 1095.67C1621.69 1082.05 1612.13 1068.07 1601.39 1054.28V1108.12ZM832.551 1053.26C830.154 1056.12 827.835 1058.97 825.596 1061.81C817.037 1072.64 809.654 1083.24 803.476 1093.41C813.003 1097.93 822.699 1102.27 832.551 1106.42V1053.26ZM758.508 1074.1C758.393 1084.07 758.34 1093.67 758.317 1102.65C759.346 1094.56 760.664 1086.06 762.252 1077.35C762.194 1076.94 762.135 1076.52 762.078 1076.11C760.885 1075.44 759.695 1074.77 758.508 1074.1ZM1671.15 1078.84C1672.54 1086.16 1673.74 1093.25 1674.74 1099.99V1076.87C1673.55 1077.53 1672.35 1078.19 1671.15 1078.84ZM1654.42 1033.75C1648.42 1053.31 1641.42 1073 1633.67 1093.86C1640.68 1090.56 1647.6 1087.16 1654.42 1083.67V1033.75ZM1653.69 1026.97C1637.25 1035.31 1620.26 1043.1 1602.8 1050.33C1613.63 1064.1 1623.33 1078.11 1631.59 1091.82C1639.96 1069.26 1647.43 1048.09 1653.69 1026.97ZM779.527 1081.5C785.978 1084.87 792.519 1088.15 799.142 1091.34C791.749 1071.51 785.172 1052.89 779.527 1033.9V1081.5ZM779.56 1024.46C785.668 1046.27 793.021 1067.31 801.454 1089.95C807.518 1080.12 814.655 1069.95 822.825 1059.61C825.643 1056.05 828.586 1052.46 831.652 1048.85C813.754 1041.31 796.364 1033.18 779.56 1024.46ZM942.133 1081.87C962.135 1067.43 983.401 1053.59 1006.26 1040.2C984.544 1035.94 963.136 1030.99 942.133 1025.38V1081.87ZM1657.95 1081.85C1661.32 1080.1 1664.67 1078.32 1668 1076.52C1665.3 1062.73 1661.93 1048.18 1657.95 1033.69V1081.85ZM1557.17 1006.59C1540.95 1031.14 1521.43 1056.43 1499.42 1081.72C1533.2 1072.52 1565.89 1061.56 1597.1 1048.85C1596.46 1048.05 1595.81 1047.25 1595.16 1046.46C1583.82 1032.55 1571.34 1018.97 1558.05 1006.29C1557.76 1006.39 1557.46 1006.49 1557.17 1006.59ZM1491.81 1026.38C1471.16 1031.8 1450.13 1036.58 1428.8 1040.71C1451.23 1053.82 1472.13 1067.36 1491.81 1081.48V1026.38ZM1551.67 1008.47C1533.28 1014.69 1514.48 1020.35 1495.35 1025.45V1081.01C1516.72 1056.58 1535.72 1032.17 1551.67 1008.47ZM881.682 1006.93C897.728 1030.94 916.94 1055.71 938.598 1080.51V1024.42C919.25 1019.17 900.253 1013.33 881.682 1006.93ZM877.483 1007C862.498 1020.49 849.152 1034.08 837.507 1047.46C868.289 1060.2 900.554 1071.21 933.901 1080.5C912.446 1055.76 893.395 1031.02 877.483 1007ZM775.993 1029.56C771.834 1044.39 768.333 1059.47 765.573 1074C769.019 1075.9 772.493 1077.78 775.993 1079.64V1029.56ZM1674.74 1049.71C1673.89 1057.64 1672.9 1065.84 1671.73 1074.49C1672.74 1073.94 1673.74 1073.38 1674.74 1072.82V1049.71ZM758.904 1050.01C758.755 1056.79 758.642 1063.5 758.557 1070.06C759.531 1070.61 760.508 1071.17 761.487 1071.72C760.5 1064.24 759.651 1057.04 758.904 1050.01ZM1673.98 1016.25C1668.77 1019.12 1663.49 1021.93 1658.16 1024.68C1662.65 1040.13 1666.48 1055.83 1669.55 1070.78C1671.66 1054.74 1673.15 1040.23 1674.36 1025.99C1674.24 1022.74 1674.12 1019.49 1673.98 1016.25ZM760.064 1013.94C759.855 1018.71 759.672 1023.49 759.509 1028.27C760.609 1041.43 761.964 1054.76 763.82 1069.12C766.884 1053.7 770.755 1037.77 775.334 1022.26C770.187 1019.54 765.096 1016.77 760.064 1013.94ZM409.246 700.98L411.111 702.059L409.246 704.575V768.21L411.111 769.289L409.246 771.805V835.44L411.111 836.519L409.246 839.035V902.67L411.111 903.749L409.246 906.265V936.815L430.738 949.236L431.014 948.866L431.288 949.554L488.904 982.851L489.179 982.481L489.453 983.169L547.069 1016.47L547.344 1016.1L547.618 1016.78L605.234 1050.08L605.509 1049.71L605.783 1050.4L626.642 1062.45V1030.69L625.404 1027.59L626.642 1028.31V963.464L625.404 960.364L626.642 961.079V896.234L625.404 893.134L626.642 893.849V829.004L625.404 825.904L626.642 826.619V810.518L614.582 803.514L614.693 803.792L596.325 793.176L596.462 792.991L556.331 769.686L556.528 770.177L538.16 759.563L538.383 759.262L498.081 735.857L498.363 736.562L479.995 725.947L480.302 725.532L439.83 702.03L440.197 702.947L421.83 692.333L422.222 691.804L409.246 684.268V700.98ZM641.906 809.877V1062.45L744.178 1003.35V873.672C744.178 873.491 744.185 873.31 744.199 873.132C744.2 873.116 744.202 873.099 744.203 873.083C744.203 873.076 744.204 873.068 744.205 873.061C744.212 872.973 744.221 872.885 744.232 872.798C744.234 872.783 744.236 872.767 744.238 872.752C744.239 872.746 744.239 872.739 744.24 872.733C744.255 872.616 744.275 872.499 744.296 872.383C744.3 872.362 744.304 872.341 744.308 872.321C744.331 872.202 744.357 872.083 744.386 871.966C744.388 871.959 744.39 871.952 744.392 871.945C744.402 871.905 744.413 871.865 744.423 871.826C744.45 871.727 744.479 871.629 744.509 871.532C744.513 871.52 744.517 871.507 744.521 871.495C744.532 871.459 744.545 871.422 744.557 871.386C744.564 871.367 744.57 871.348 744.576 871.329C744.592 871.284 744.609 871.239 744.626 871.195C744.634 871.172 744.642 871.149 744.651 871.127C744.656 871.115 744.661 871.102 744.665 871.09C744.677 871.06 744.69 871.029 744.702 870.999C744.704 870.994 744.706 870.99 744.708 870.985C744.72 870.956 744.732 870.927 744.744 870.898C744.761 870.857 744.779 870.816 744.797 870.776C744.801 870.766 744.806 870.755 744.811 870.745C744.851 870.657 744.893 870.569 744.937 870.483C744.94 870.475 744.944 870.467 744.948 870.46C744.954 870.447 744.961 870.435 744.968 870.422L744.995 870.369C745.039 870.286 745.084 870.203 745.132 870.121C745.137 870.112 745.142 870.104 745.148 870.095C745.169 870.058 745.192 870.02 745.215 869.983C745.217 869.979 745.22 869.974 745.222 869.97C745.269 869.894 745.317 869.819 745.367 869.744L745.433 869.648C745.438 869.641 745.443 869.634 745.447 869.627C745.517 869.527 745.588 869.428 745.663 869.332C745.665 869.329 745.667 869.326 745.67 869.323C745.684 869.305 745.699 869.287 745.713 869.268C745.721 869.259 745.728 869.249 745.736 869.24C745.799 869.162 745.863 869.084 745.93 869.008C745.933 869.005 745.937 869.001 745.94 868.997C745.948 868.988 745.957 868.979 745.965 868.97C746.11 868.806 746.264 868.649 746.424 868.499C746.45 868.475 746.476 868.45 746.502 868.427C746.51 868.42 746.518 868.413 746.525 868.406C746.608 868.332 746.691 868.26 746.777 868.189C746.802 868.169 746.827 868.15 746.852 868.13C746.93 868.067 747.01 868.006 747.091 867.946C747.104 867.937 747.117 867.928 747.13 867.919C747.154 867.901 747.179 867.884 747.204 867.867C747.219 867.856 747.234 867.846 747.249 867.836C747.301 867.8 747.354 867.764 747.408 867.73C747.43 867.715 747.453 867.7 747.476 867.686C747.554 867.637 747.633 867.589 747.713 867.543L980.373 733.084L980.579 732.968C980.657 732.927 980.735 732.888 980.813 732.85C980.914 732.801 981.017 732.753 981.119 732.709C981.147 732.697 981.176 732.685 981.204 732.673C981.233 732.661 981.262 732.65 981.292 732.638C981.334 732.621 981.376 732.603 981.419 732.587C981.482 732.564 981.546 732.542 981.609 732.52C981.614 732.519 981.618 732.517 981.623 732.515C981.656 732.504 981.69 732.492 981.724 732.481C981.841 732.443 981.959 732.407 982.078 732.375C982.1 732.37 982.122 732.365 982.144 732.359C982.195 732.346 982.246 732.333 982.297 732.321C982.324 732.315 982.352 732.31 982.379 732.304C982.422 732.294 982.466 732.284 982.509 732.275C982.546 732.268 982.584 732.261 982.621 732.254C982.66 732.247 982.698 732.24 982.737 732.234C982.762 732.229 982.788 732.225 982.813 732.221C982.866 732.213 982.92 732.204 982.973 732.197C982.995 732.194 983.017 732.192 983.038 732.189C983.089 732.183 983.14 732.177 983.191 732.172C983.215 732.17 983.24 732.168 983.264 732.165C983.322 732.16 983.379 732.155 983.436 732.151C983.447 732.151 983.457 732.149 983.468 732.148C983.527 732.145 983.586 732.142 983.645 732.14C983.677 732.139 983.708 732.138 983.739 732.137C983.776 732.136 983.813 732.136 983.851 732.136C983.889 732.136 983.927 732.136 983.965 732.136C984.002 732.136 984.038 732.136 984.075 732.137C984.114 732.138 984.152 732.14 984.191 732.142C984.232 732.143 984.274 732.145 984.315 732.147C984.345 732.149 984.374 732.151 984.404 732.153C984.448 732.156 984.492 732.16 984.536 732.164C984.569 732.166 984.602 732.17 984.635 732.173C984.674 732.177 984.714 732.181 984.754 732.186C984.794 732.191 984.835 732.197 984.875 732.202C984.908 732.207 984.942 732.211 984.975 732.217C985.009 732.222 985.042 732.227 985.075 732.233C985.129 732.242 985.183 732.252 985.237 732.262C985.254 732.265 985.272 732.268 985.289 732.271C985.347 732.283 985.405 732.295 985.463 732.308C985.482 732.312 985.5 732.317 985.519 732.321C985.571 732.334 985.624 732.347 985.676 732.36C985.696 732.365 985.716 732.37 985.736 732.375C985.79 732.39 985.843 732.405 985.896 732.421C985.919 732.428 985.942 732.435 985.965 732.442C985.997 732.451 986.028 732.462 986.06 732.472C986.173 732.508 986.286 732.547 986.398 732.589C986.44 732.605 986.482 732.621 986.523 732.637C986.554 732.65 986.586 732.662 986.617 732.675C986.636 732.683 986.655 732.692 986.674 732.7C986.728 732.723 986.782 732.746 986.835 732.771C986.933 732.815 987.03 732.863 987.126 732.912C987.232 732.966 987.339 733.023 987.443 733.084C989.05 734.012 990.662 734.929 992.281 735.834C997.068 738.512 1001.91 741.089 1006.79 743.567C1007.66 744.006 1008.53 744.442 1009.4 744.875C1035.78 758.018 1063.51 768.274 1091.96 775.799V549.779L641.906 809.877ZM1312.06 988.156C1311.52 988.201 1310.98 988.245 1310.44 988.29C1309.71 988.349 1308.99 988.409 1308.27 988.468C1307.65 988.517 1307.04 988.565 1306.42 988.613C1305.74 988.667 1305.06 988.72 1304.38 988.772C1303.71 988.824 1303.04 988.875 1302.37 988.925C1301.81 988.967 1301.25 989.009 1300.69 989.05C1299.99 989.101 1299.3 989.153 1298.6 989.202C1297.88 989.254 1297.15 989.306 1296.43 989.357C1295.92 989.392 1295.42 989.426 1294.91 989.461C1294.17 989.511 1293.43 989.562 1292.69 989.611C1292.03 989.655 1291.37 989.699 1290.71 989.741C1290.14 989.778 1289.57 989.814 1289.01 989.85C1288.22 989.9 1287.43 989.949 1286.64 989.997C1286.15 990.027 1285.65 990.058 1285.15 990.088C1284.44 990.13 1283.73 990.173 1283.02 990.214C1282.31 990.255 1281.6 990.296 1280.89 990.335C1280.33 990.367 1279.77 990.397 1279.21 990.428C1278.46 990.469 1277.71 990.509 1276.96 990.548C1276.39 990.578 1275.82 990.608 1275.25 990.637C1274.62 990.669 1273.99 990.701 1273.36 990.733C1272.62 990.769 1271.88 990.805 1271.14 990.84C1270.49 990.871 1269.85 990.901 1269.2 990.93C1268.68 990.954 1268.15 990.98 1267.62 991.003C1266.75 991.042 1265.88 991.079 1265.01 991.116C1264.55 991.135 1264.08 991.155 1263.62 991.174C1262.85 991.206 1262.08 991.235 1261.32 991.265C1260.75 991.287 1260.18 991.31 1259.61 991.331C1258.79 991.362 1257.97 991.391 1257.15 991.42C1256.73 991.435 1256.31 991.45 1255.9 991.465C1255.06 991.493 1254.22 991.52 1253.39 991.547C1252.84 991.564 1252.3 991.582 1251.75 991.599C1251.05 991.62 1250.34 991.64 1249.63 991.66C1249.04 991.677 1248.45 991.695 1247.85 991.711C1247.11 991.732 1246.37 991.75 1245.63 991.769C1245.09 991.783 1244.55 991.797 1244.01 991.81C1243.25 991.828 1242.49 991.844 1241.73 991.861C1241.14 991.874 1240.56 991.887 1239.98 991.899C1239.45 991.909 1238.91 991.919 1238.38 991.929C1237.57 991.944 1236.77 991.961 1235.96 991.974C1235.43 991.983 1234.91 991.99 1234.38 991.998C1233.67 992.009 1232.96 992.021 1232.25 992.031C1231.26 992.045 1230.26 992.055 1229.27 992.066C1228.96 992.069 1228.65 992.073 1228.34 992.076C1227.2 992.088 1226.05 992.098 1224.91 992.107C1224.75 992.108 1224.6 992.11 1224.44 992.111C1223.71 992.116 1222.97 992.119 1222.24 992.123C1221.42 992.127 1220.6 992.131 1219.78 992.133C1218.7 992.136 1217.61 992.139 1216.53 992.139C1215.45 992.139 1214.36 992.136 1213.28 992.133C1212.46 992.131 1211.64 992.127 1210.82 992.123C1210.09 992.119 1209.35 992.116 1208.62 992.111C1208.46 992.11 1208.31 992.108 1208.15 992.107C1207.01 992.098 1205.86 992.088 1204.72 992.076C1204.41 992.073 1204.1 992.069 1203.79 992.066C1202.8 992.055 1201.8 992.045 1200.81 992.031C1200.1 992.021 1199.39 992.009 1198.68 991.998C1198.16 991.99 1197.63 991.983 1197.1 991.974C1196.29 991.961 1195.49 991.944 1194.68 991.929C1194.15 991.919 1193.62 991.909 1193.08 991.899C1192.5 991.887 1191.92 991.874 1191.33 991.861C1190.57 991.844 1189.81 991.828 1189.05 991.81C1188.51 991.797 1187.97 991.783 1187.43 991.769C1186.69 991.75 1185.95 991.732 1185.2 991.711C1184.61 991.695 1184.02 991.677 1183.43 991.66C1182.72 991.64 1182.01 991.62 1181.31 991.599C1180.76 991.582 1180.22 991.564 1179.67 991.547C1178.84 991.52 1178 991.493 1177.16 991.465C1176.75 991.45 1176.33 991.435 1175.91 991.42C1175.09 991.391 1174.27 991.362 1173.45 991.331C1172.88 991.31 1172.31 991.287 1171.75 991.265C1170.98 991.235 1170.21 991.206 1169.44 991.174C1168.98 991.155 1168.51 991.135 1168.05 991.116C1167.18 991.079 1166.31 991.042 1165.44 991.003C1164.91 990.98 1164.38 990.954 1163.86 990.93C1163.21 990.901 1162.57 990.871 1161.92 990.84C1161.18 990.805 1160.44 990.769 1159.7 990.733C1159.07 990.701 1158.44 990.669 1157.8 990.637C1157.24 990.608 1156.67 990.578 1156.1 990.548C1155.35 990.508 1154.6 990.469 1153.84 990.428C1153.29 990.398 1152.73 990.367 1152.17 990.335C1151.46 990.296 1150.75 990.255 1150.04 990.214C1149.33 990.173 1148.62 990.13 1147.91 990.088C1147.41 990.058 1146.91 990.027 1146.42 989.997C1145.63 989.949 1144.84 989.9 1144.05 989.85C1143.49 989.814 1142.92 989.778 1142.35 989.741C1141.69 989.699 1141.03 989.655 1140.37 989.611C1139.63 989.562 1138.89 989.511 1138.15 989.461C1137.64 989.426 1137.14 989.392 1136.63 989.357C1135.91 989.306 1135.18 989.254 1134.46 989.202C1133.76 989.153 1133.07 989.101 1132.37 989.05C1131.81 989.009 1131.25 988.967 1130.69 988.925C1130.02 988.875 1129.35 988.824 1128.68 988.772C1128 988.72 1127.32 988.667 1126.64 988.613C1126.02 988.565 1125.4 988.516 1124.79 988.467C1124.08 988.41 1123.37 988.352 1122.67 988.294C1122.47 988.278 1122.28 988.261 1122.09 988.245C1156.9 1015.58 1188.87 1038.04 1218.35 1056.93C1218.73 1056.93 1219.11 1056.94 1219.5 1056.94L1219.5 1056.93C1248.35 1038.56 1279.19 1016.32 1312.84 988.089C1312.58 988.111 1312.32 988.134 1312.06 988.156ZM1118.88 1052.54C1149.66 1055.27 1180.71 1056.72 1211.79 1056.91C1183.23 1038.41 1152.36 1016.56 1118.88 990.224V1052.54ZM1315.07 990.836C1283.12 1017.64 1253.69 1039.06 1226.09 1056.91C1255.84 1056.72 1285.57 1055.37 1315.07 1052.86V990.836ZM1318.6 1052.55C1352.43 1049.56 1385.93 1045.04 1418.77 1039C1388.43 1021.69 1355.29 1005.09 1318.6 988.835V1052.55ZM1115.34 988.735C1079.08 1004.87 1046.29 1021.34 1016.24 1038.52C1048.72 1044.59 1081.86 1049.16 1115.34 1052.23V988.735ZM1638.12 975.877C1628.93 998.852 1617.05 1022.32 1603.47 1046.22C1620.96 1038.91 1637.97 1031.05 1654.42 1022.63V1021.35C1654.4 1021.29 1654.38 1021.23 1654.36 1021.17C1649.61 1005.33 1644.16 989.864 1638.12 975.877ZM1597.86 991.319C1586.04 996.121 1574.01 1000.68 1561.79 1004.98C1574.7 1017.4 1586.82 1030.63 1597.86 1044.17V991.319ZM795.464 974.522C789.563 987.702 784.236 1002.27 779.579 1017.37C779.561 1017.42 779.544 1017.48 779.527 1017.54V1020.46C795.665 1028.89 812.356 1036.77 829.526 1044.1C816.156 1020.47 804.485 997.251 795.464 974.522ZM836.086 1043.72C847.476 1030.75 860.435 1017.6 874.908 1004.56C861.736 999.885 848.786 994.921 836.086 989.664V1043.72ZM1634.55 975.278C1623.71 980.371 1612.65 985.236 1601.39 989.873V1042.71C1614.39 1019.73 1625.72 997.238 1634.55 975.278ZM798.645 972.954C807.58 995.51 819.185 1018.63 832.551 1042.27V988.19C821.033 983.354 809.724 978.275 798.645 972.954ZM1491.52 957.687C1482.22 960.138 1472.84 962.459 1463.4 964.648C1463.18 964.699 1462.96 964.752 1462.74 964.803C1461.66 965.053 1460.57 965.3 1459.49 965.547C1459.39 965.569 1459.29 965.592 1459.19 965.614C1458.17 965.846 1457.15 966.076 1456.13 966.304C1455.89 966.359 1455.65 966.413 1455.41 966.467C1454.35 966.704 1453.29 966.939 1452.22 967.172C1452.1 967.2 1451.97 967.229 1451.84 967.257C1450.69 967.508 1449.54 967.757 1448.4 968.005C1448.34 968.017 1448.29 968.028 1448.23 968.04C1445.98 968.525 1443.72 969.003 1441.47 969.473C1441.15 969.538 1440.84 969.603 1440.53 969.667C1439.59 969.863 1438.65 970.056 1437.7 970.249C1437.44 970.303 1437.18 970.357 1436.91 970.411C1435.88 970.621 1434.84 970.83 1433.81 971.038C1433.65 971.069 1433.49 971.1 1433.34 971.131C1432.25 971.348 1431.17 971.563 1430.08 971.776C1429.93 971.807 1429.77 971.837 1429.62 971.867C1428.55 972.075 1427.49 972.281 1426.43 972.486C1426.23 972.525 1426.02 972.564 1425.82 972.604C1424.8 972.799 1423.78 972.993 1422.76 973.185C1422.51 973.233 1422.26 973.28 1422.01 973.327C1421.06 973.506 1420.11 973.683 1419.16 973.86C1418.78 973.93 1418.4 974.001 1418.01 974.071C1417.2 974.222 1416.38 974.372 1415.56 974.521C1415.14 974.595 1414.73 974.669 1414.32 974.744C1413.35 974.919 1412.38 975.093 1411.41 975.265C1411.27 975.288 1411.14 975.312 1411.01 975.336C1409.94 975.526 1408.86 975.714 1407.79 975.9C1407.54 975.942 1407.3 975.985 1407.06 976.026C1406.05 976.201 1405.04 976.375 1404.03 976.547C1403.8 976.587 1403.57 976.626 1403.33 976.665C1402.32 976.837 1401.31 977.007 1400.3 977.175C1400.04 977.217 1399.79 977.259 1399.54 977.301C1397.24 977.681 1394.94 978.054 1392.64 978.42C1392.49 978.444 1392.34 978.468 1392.18 978.493C1391.13 978.659 1390.08 978.824 1389.03 978.987C1388.67 979.043 1388.31 979.098 1387.95 979.154C1387 979.301 1386.04 979.448 1385.09 979.592C1385 979.606 1384.9 979.619 1384.81 979.633C1383.65 979.809 1382.49 979.984 1381.32 980.156C1381.2 980.174 1381.07 980.192 1380.95 980.211C1370.12 981.808 1359.24 983.244 1348.32 984.52C1347.9 984.569 1347.49 984.618 1347.07 984.666C1346 984.79 1344.93 984.912 1343.86 985.033C1343.69 985.052 1343.52 985.072 1343.34 985.092C1342.52 985.184 1341.69 985.274 1340.87 985.365C1340.36 985.421 1339.84 985.479 1339.33 985.534C1338.54 985.62 1337.75 985.705 1336.95 985.789C1336.49 985.838 1336.04 985.887 1335.58 985.935C1334.68 986.03 1333.78 986.122 1332.88 986.214C1332.49 986.254 1332.11 986.294 1331.72 986.333C1331.07 986.399 1330.42 986.464 1329.77 986.529C1329.03 986.603 1328.28 986.678 1327.53 986.751C1327.07 986.796 1326.61 986.841 1326.14 986.885C1325.39 986.958 1324.64 987.03 1323.89 987.101C1323.76 987.114 1323.62 987.125 1323.49 987.138C1360.1 1003.49 1393.19 1020.19 1423.5 1037.63C1435.31 1027.99 1445.81 1018.75 1454.84 1009.89C1474.61 990.491 1487.2 973.126 1491.52 957.687ZM943.11 958.098C943.638 964.391 946.438 971.459 951.43 979.28C956.99 987.991 965.177 997.495 975.644 1007.71C985.194 1017.02 996.602 1026.89 1009.57 1037.25C1010.01 1037.33 1010.46 1037.42 1010.9 1037.5C1040.99 1020.12 1073.82 1003.48 1110.13 987.191C1109.81 987.161 1109.49 987.132 1109.16 987.101C1108.44 987.033 1107.73 986.963 1107.01 986.894C1106.5 986.845 1106 986.798 1105.5 986.748C1104.77 986.677 1104.05 986.605 1103.32 986.533C1102.66 986.467 1102 986.4 1101.34 986.333C1100.95 986.294 1100.57 986.254 1100.18 986.214C1099.28 986.122 1098.38 986.03 1097.48 985.935C1097.02 985.887 1096.57 985.838 1096.11 985.789C1095.31 985.705 1094.52 985.62 1093.73 985.534C1093.22 985.479 1092.7 985.421 1092.19 985.365C1091.37 985.274 1090.54 985.184 1089.72 985.092C1089.54 985.072 1089.37 985.052 1089.2 985.033C1088.13 984.913 1087.07 984.791 1086 984.668C1084.01 984.437 1082.01 984.2 1080.02 983.959C1076.18 983.493 1072.34 983.007 1068.51 982.501C1067.94 982.426 1067.37 982.353 1066.8 982.277C1065.82 982.145 1064.83 982.011 1063.85 981.876C1063.59 981.842 1063.34 981.807 1063.09 981.772C1059.7 981.308 1056.32 980.828 1052.95 980.333C1052.46 980.262 1051.98 980.192 1051.5 980.121C1050.58 979.985 1049.66 979.847 1048.75 979.709C1048.47 979.667 1048.2 979.625 1047.92 979.584C1046.98 979.442 1046.05 979.298 1045.11 979.154C1044.75 979.098 1044.39 979.043 1044.03 978.987C1043.18 978.856 1042.34 978.721 1041.49 978.588C1041.05 978.518 1040.61 978.449 1040.17 978.379C1039.33 978.246 1038.49 978.11 1037.66 977.975C1037.26 977.911 1036.86 977.848 1036.46 977.783C1035.71 977.661 1034.96 977.537 1034.2 977.413C1033.62 977.316 1033.03 977.219 1032.44 977.121C1031.67 976.992 1030.9 976.862 1030.12 976.732C1029.74 976.667 1029.36 976.603 1028.97 976.538C1027.98 976.369 1026.99 976.198 1026 976.026C1025.76 975.985 1025.52 975.942 1025.28 975.9C1024.31 975.733 1023.34 975.563 1022.38 975.393C1022.04 975.333 1021.71 975.274 1021.37 975.215C1020.6 975.077 1019.82 974.94 1019.05 974.801C1018.51 974.702 1017.96 974.603 1017.41 974.504C1016.62 974.36 1015.83 974.216 1015.05 974.071C1014.66 974.001 1014.28 973.93 1013.9 973.86C1013.01 973.696 1012.13 973.53 1011.24 973.364C1010.83 973.286 1010.42 973.208 1010 973.13C1009.24 972.986 1008.48 972.841 1007.72 972.695C1007.21 972.598 1006.71 972.501 1006.2 972.403C1005.43 972.255 1004.66 972.104 1003.89 971.954C1003.44 971.865 1002.98 971.775 1002.52 971.685C1001.73 971.529 1000.93 971.371 1000.13 971.213C999.669 971.12 999.204 971.028 998.74 970.935C998.002 970.786 997.264 970.636 996.527 970.486C995.958 970.371 995.389 970.255 994.821 970.138C994.15 970.001 993.479 969.864 992.809 969.725C992.338 969.627 991.867 969.529 991.395 969.431C990.467 969.237 989.539 969.043 988.611 968.847C988.43 968.809 988.249 968.77 988.068 968.732C987.064 968.519 986.06 968.306 985.057 968.09C984.807 968.036 984.557 967.981 984.306 967.927C983.307 967.712 982.309 967.494 981.311 967.276C981.05 967.218 980.788 967.16 980.527 967.103C979.646 966.909 978.765 966.715 977.885 966.519C977.454 966.423 977.022 966.326 976.591 966.229C975.682 966.025 974.775 965.82 973.868 965.614C973.769 965.592 973.67 965.57 973.571 965.547C972.487 965.3 971.403 965.053 970.321 964.803C970.099 964.752 969.878 964.699 969.657 964.648C960.744 962.582 951.894 960.397 943.11 958.098ZM1491.81 967.216C1485.62 981.214 1473.77 996.27 1457.31 1012.41C1449.3 1020.28 1440.15 1028.43 1429.99 1036.87C1450.91 1032.78 1471.55 1028.06 1491.81 1022.72V967.216ZM942.133 1021.71C961.79 1026.99 981.807 1031.68 1002.11 1035.77C991.215 1026.89 981.503 1018.37 973.176 1010.24C962.606 999.928 954.212 990.212 948.451 981.186C945.773 976.989 943.644 972.91 942.133 968.964V1021.71ZM1495.35 1021.79C1515.6 1016.36 1535.48 1010.31 1554.88 1003.63C1554.93 1003.57 1554.97 1003.5 1555.02 1003.43C1536.38 986.002 1516.2 970.392 1495.35 958.127V1021.79ZM938.598 959.27C917.692 973.466 898.712 988.254 881.743 1003.2C900.287 1009.63 919.265 1015.48 938.598 1020.76V959.27ZM1670.69 965.749C1667.57 984.67 1663.37 1002.7 1658.29 1020.63C1663.52 1017.91 1668.69 1015.14 1673.81 1012.31C1673.75 1011.1 1673.7 1009.89 1673.64 1008.69C1672.93 993.891 1671.97 979.354 1670.69 965.749ZM763.585 962.335C762.13 976.909 761.072 992.646 760.304 1008.69C760.284 1009.12 760.265 1009.55 760.245 1009.98C765.134 1012.74 770.08 1015.46 775.08 1018.11C770.425 1000.58 766.565 982.377 763.585 962.335ZM1654.42 965.567C1649.55 968.04 1644.64 970.463 1639.69 972.839C1645.09 985.102 1650.02 998.525 1654.42 1012.36V965.567ZM1669.25 957.792C1665.52 959.81 1661.75 961.799 1657.95 963.758V1011.89C1662.66 994.305 1666.49 976.528 1669.25 957.792ZM765.332 955.831C768.062 975.742 771.641 993.778 775.993 1011.06V961.563C772.412 959.679 768.857 957.769 765.332 955.831ZM779.527 1008.79C783.884 995.509 788.768 982.732 794.114 971.076C794.064 970.946 794.012 970.816 793.962 970.686C789.104 968.309 784.292 965.882 779.527 963.41V1008.79ZM1597.86 928.998C1589.54 951.823 1576.74 976.35 1560.34 1001.74C1573.06 997.262 1585.58 992.518 1597.86 987.501V928.998ZM838.4 923.697C846.718 947.906 860.34 974.242 878.186 1001.63C895.571 986.217 915.067 970.973 936.579 956.364C925.042 953.256 913.625 949.947 902.346 946.433C902.29 946.415 902.234 946.398 902.178 946.381C898.754 945.313 895.343 944.226 891.945 943.121C891.849 943.09 891.754 943.059 891.658 943.028C890.616 942.689 889.575 942.348 888.536 942.005C888.416 941.965 888.295 941.926 888.175 941.886C887.123 941.538 886.071 941.189 885.021 940.838C884.921 940.805 884.821 940.771 884.721 940.738C883.662 940.383 882.604 940.027 881.548 939.668C881.461 939.639 881.374 939.61 881.287 939.58C880.212 939.215 879.139 938.848 878.067 938.48C878.002 938.457 877.936 938.435 877.871 938.412C875.637 937.644 873.41 936.866 871.189 936.08C871.133 936.061 871.077 936.041 871.022 936.022C868.829 935.246 866.642 934.462 864.462 933.67C864.334 933.623 864.205 933.576 864.077 933.53C855.418 930.38 846.857 927.101 838.4 923.697ZM1596.2 923.078C1564.92 935.744 1532.19 946.663 1498.42 955.839C1518.9 968.031 1538.68 983.366 1556.98 1000.42C1574.59 973.235 1588.02 947.102 1596.2 923.078ZM836.086 985.831C848.169 990.86 860.483 995.622 873.001 1000.12C856.813 974.854 844.217 950.46 836.086 927.773V985.831ZM758.317 996.132C759.18 981.38 760.317 967.067 761.821 953.887C760.65 953.233 759.482 952.576 758.317 951.917V996.132ZM1601.39 986.046C1613.1 981.197 1624.59 976.096 1635.85 970.75C1634.04 966.786 1632.19 962.958 1630.29 959.294C1621.49 942.323 1611.76 929.023 1601.39 921.843V986.046ZM832.551 921.839C822.169 928.973 812.436 941.681 803.641 957.886C801.752 961.367 799.91 965.003 798.116 968.772C809.36 974.217 820.846 979.409 832.551 984.349V921.839ZM1672.37 956.098C1673.3 964.533 1674.08 973.41 1674.74 982.549V954.79C1673.95 955.226 1673.16 955.664 1672.37 956.098ZM765.509 873.601C766.45 874.121 767.394 874.638 768.339 875.154C768.417 875.197 768.496 875.24 768.574 875.283C771.441 876.846 774.325 878.392 777.229 879.92C777.353 879.985 777.478 880.05 777.603 880.115C805.498 894.77 835.081 907.784 865.974 919.154C866.061 919.186 866.148 919.22 866.235 919.252C869.454 920.435 872.687 921.6 875.934 922.748C877.152 923.179 878.373 923.607 879.595 924.032C881.773 924.791 883.957 925.541 886.147 926.284C888.484 927.076 890.828 927.86 893.179 928.634C897.627 930.099 902.099 931.533 906.594 932.933C906.718 932.972 906.843 933.011 906.968 933.049C909.165 933.733 911.369 934.408 913.577 935.076C914.807 935.448 916.039 935.818 917.272 936.185C936.768 941.99 956.669 947.192 976.893 951.789C976.992 951.812 977.091 951.834 977.189 951.856C979.517 952.385 981.849 952.905 984.185 953.418C984.251 953.432 984.318 953.447 984.384 953.461C987.87 954.225 991.366 954.97 994.87 955.699C1017.11 960.32 1039.7 964.224 1062.54 967.409C1065.85 967.871 1069.17 968.319 1072.5 968.751C1072.85 968.797 1073.2 968.842 1073.55 968.887C1075.33 969.116 1077.11 969.341 1078.89 969.561C1079.54 969.642 1080.19 969.722 1080.84 969.802C1083.89 970.174 1086.94 970.532 1089.99 970.879C1129.84 975.399 1170.3 977.765 1210.81 977.969C1212.71 977.978 1214.62 977.985 1216.53 977.985C1218.44 977.985 1220.35 977.978 1222.25 977.969C1261.25 977.773 1300.21 975.573 1338.61 971.375C1343.16 970.879 1347.69 970.354 1352.22 969.802C1352.87 969.722 1353.52 969.642 1354.17 969.561C1355.95 969.341 1357.73 969.116 1359.51 968.887C1361.09 968.682 1362.68 968.476 1364.27 968.264C1367.95 967.773 1371.62 967.262 1375.29 966.734C1376.6 966.545 1377.91 966.354 1379.22 966.161C1381.58 965.811 1383.94 965.453 1386.3 965.088C1403.77 962.383 1421.09 959.253 1438.19 955.699C1441.69 954.97 1445.19 954.225 1448.68 953.461C1448.74 953.447 1448.81 953.432 1448.87 953.418C1472.84 948.161 1496.38 942.061 1519.34 935.12C1519.38 935.106 1519.43 935.091 1519.48 935.076C1572.45 919.054 1622.37 898.556 1667.55 873.6L1450.37 748.042C1336.69 812.111 1174.41 826.749 1037.58 772.875C1037.51 772.845 1037.43 772.814 1037.35 772.784C1035.12 771.903 1032.89 771.002 1030.67 770.085C1030.5 770.014 1030.33 769.943 1030.16 769.873C1029.12 769.445 1028.09 769.013 1027.06 768.576C1026.89 768.504 1026.72 768.432 1026.55 768.359C1026.19 768.204 1025.82 768.048 1025.46 767.892C1025.22 767.79 1024.98 767.688 1024.74 767.585C1024.35 767.414 1023.95 767.242 1023.55 767.07C1023.43 767.018 1023.31 766.965 1023.19 766.913C1022.75 766.721 1022.31 766.529 1021.87 766.336C1021.67 766.247 1021.47 766.158 1021.27 766.069C1020.84 765.881 1020.41 765.692 1019.98 765.502C1019.85 765.44 1019.71 765.377 1019.57 765.316C1019.19 765.148 1018.82 764.981 1018.44 764.812C1018.2 764.703 1017.96 764.594 1017.71 764.484C1017.36 764.322 1017 764.159 1016.64 763.996C1016.38 763.877 1016.12 763.757 1015.85 763.638C1015.58 763.514 1015.31 763.39 1015.04 763.265C1014.71 763.115 1014.39 762.963 1014.06 762.812C1013.75 762.669 1013.44 762.525 1013.13 762.381C1012.96 762.3 1012.78 762.219 1012.61 762.138C1012.15 761.925 1011.7 761.71 1011.24 761.495C1011.13 761.442 1011.02 761.39 1010.91 761.337C1010.47 761.131 1010.04 760.924 1009.6 760.717C1009.45 760.644 1009.3 760.571 1009.14 760.498C1008.69 760.28 1008.23 760.061 1007.78 759.841C1007.63 759.769 1007.48 759.697 1007.33 759.625C1006.97 759.451 1006.61 759.277 1006.25 759.101C1005.96 758.957 1005.66 758.812 1005.37 758.667C1005.06 758.516 1004.75 758.365 1004.44 758.213C1004.06 758.024 1003.68 757.834 1003.3 757.644C1003.17 757.583 1003.05 757.521 1002.92 757.46C1002.4 757.199 1001.88 756.937 1001.36 756.674C1001.29 756.641 1001.23 756.609 1001.16 756.576C1000.83 756.407 1000.49 756.236 1000.15 756.065C998.69 755.321 997.23 754.569 995.774 753.808C995.642 753.739 995.509 753.67 995.377 753.6C994.951 753.377 994.526 753.154 994.101 752.93C993.924 752.836 993.748 752.742 993.572 752.648C992.633 752.15 991.696 751.65 990.761 751.145C989.835 750.645 988.91 750.14 987.987 749.632C986.631 748.886 985.277 748.133 983.928 747.371L765.509 873.601ZM1654.42 922.094C1651.49 937.224 1646.94 952.615 1641.08 968.241C1645.56 966.066 1650.01 963.85 1654.42 961.595V922.094ZM1654.23 896.681C1637.83 905.03 1620.9 912.831 1603.5 920.081C1614.18 927.726 1623.95 941.309 1632.64 958.071C1634.28 961.224 1635.88 964.496 1637.44 967.868C1646.67 943.443 1652.66 919.691 1654.23 896.681ZM779.781 897.161C781.427 919.632 787.263 942.808 796.202 966.626C797.863 963.174 799.568 959.832 801.312 956.619C809.921 940.756 819.58 927.897 830.116 920.309C812.859 913.133 796.058 905.417 779.781 897.161ZM779.527 959.424C783.694 961.6 787.898 963.74 792.138 965.843C786.627 950.888 782.333 936.149 779.527 921.65V959.424ZM1657.95 959.773C1661.81 957.77 1665.64 955.736 1669.43 953.672C1668.93 949.336 1668.39 945.126 1667.81 941.069C1665.34 923.861 1662.12 909.509 1657.95 899.793V959.773ZM775.993 899.793C771.825 909.509 768.6 923.861 766.133 941.069C765.65 944.439 765.197 947.913 764.771 951.478C768.48 953.536 772.221 955.565 775.993 957.563V899.793ZM1674.74 934.423C1674.18 940.338 1673.52 946.139 1672.76 951.846C1673.42 951.48 1674.08 951.111 1674.74 950.744V934.423ZM758.317 947.848C759.5 948.522 760.687 949.194 761.876 949.862C760.399 938.104 759.208 925.682 758.317 912.384V947.848ZM1674.74 885.794C1669.35 888.776 1663.9 891.692 1658.38 894.548C1663.73 904.534 1667.6 920.932 1670.44 940.691C1670.62 942.011 1670.81 943.348 1670.99 944.698C1673.14 926.402 1674.3 907.075 1674.3 886.055H1674.74V885.794ZM759.661 886.533C760.363 906.372 761.65 924.301 763.483 940.878C763.492 940.816 763.5 940.753 763.509 940.691C766.308 921.167 770.122 904.924 775.372 894.906C774.795 894.608 774.217 894.311 773.642 894.011C773.584 893.982 773.527 893.951 773.469 893.922C770.456 892.354 767.461 890.767 764.485 889.162C764.416 889.124 764.346 889.087 764.276 889.049C763.349 888.549 762.423 888.046 761.5 887.542C761.404 887.49 761.308 887.438 761.213 887.386C760.695 887.103 760.178 886.817 759.661 886.533ZM758.317 886.055L758.765 886.04C758.681 885.994 758.597 885.948 758.513 885.902C758.448 885.866 758.383 885.83 758.317 885.794V886.055ZM416.277 671.96L634.272 797.945L1084.88 537.51L865.735 410.36L416.277 671.96Z" fill="#F8F8F8"/>
<path d="M2247.78 565.524H2361.89V721.841H2247.78V940.451C2247.78 981.196 2269.34 1001.57 2312.48 1001.57C2326.6 1001.57 2342.28 999.609 2359.54 995.692V1143.78C2337.58 1154.75 2306.6 1160.24 2266.6 1160.24C2206.21 1160.24 2158.36 1143.39 2123.07 1109.7C2088.56 1076.01 2071.31 1030.17 2071.31 972.186V721.841H1967.78V565.524H1997.19C2027 565.524 2049.35 556.904 2064.25 539.666C2079.94 521.644 2087.78 498.53 2087.78 470.323V395.102H2247.78V565.524Z" fill="#F8F8F8"/>
<path d="M2601.72 1149.66H2422.9V565.524H2601.72V1149.66Z" fill="#F8F8F8"/>
<path d="M3049.55 1149.66H2870.73V565.524H3049.55V1149.66Z" fill="#F8F8F8"/>
<path d="M2718.19 554.945C2751.13 554.945 2778.58 566.307 2800.54 589.03C2823.28 610.969 2834.65 638.394 2834.65 671.303C2834.65 703.428 2823.28 730.852 2800.54 753.575C2778.58 775.514 2751.13 786.484 2718.19 786.484C2686.03 786.484 2658.58 775.514 2635.84 753.575C2613.88 730.852 2602.9 703.428 2602.9 671.303C2602.9 638.394 2613.88 610.969 2635.84 589.03C2658.58 566.307 2686.03 554.945 2718.19 554.945Z" fill="#F8F8F8"/>
</svg>
